HIERARCHY
ROOT hips
{
  OFFSET 4.514983404067499e-9 10.105397940993303 1.318478203070619
  CHANNELS 6 Xposition Yposition Zposition Yrotation Xrotation Zrotation
  JOINT spine
  {
    OFFSET -3.891297943093837e-9 0.5743022203102706 0
    CHANNELS 3 Yrotation Xrotation Zrotation
    JOINT chest
    {
      OFFSET 0 1.2550312016247926 0
      CHANNELS 3 Yrotation Xrotation Zrotation
      JOINT upperChest
      {
        OFFSET 0 1.2059856050120283 0
        CHANNELS 3 Yrotation Xrotation Zrotation
        JOINT neck
        {
          OFFSET 0 1.5290392449770056 0
          CHANNELS 3 Yrotation Xrotation Zrotation
          JOINT head
          {
            OFFSET 0 0.8186276690878121 0
            CHANNELS 3 Yrotation Xrotation Zrotation
            JOINT leftEye
            {
              OFFSET 0.4540883942785781 -0.2684596961258452 0.6133497327236779
              CHANNELS 3 Yrotation Xrotation Zrotation
              End Site
              {
                OFFSET 0.4540883942785781 -0.2684596961258452 0.6133497327236779
              }
            }
            JOINT rightEye
            {
              OFFSET -0.4540889229417456 -0.26846010916843954 0.6133525398671689
              CHANNELS 3 Yrotation Xrotation Zrotation
              End Site
              {
                OFFSET -0.4540889229417456 -0.26846010916843954 0.6133525398671689
              }
            }
          }
        }
        JOINT leftShoulder
        {
          OFFSET 1.1700010731725468 -0.4176065950681176 0
          CHANNELS 3 Yrotation Xrotation Zrotation
          JOINT leftUpperArm
          {
            OFFSET 1.1803911524554955 0 0
            CHANNELS 3 Yrotation Xrotation Zrotation
            JOINT leftLowerArm
            {
              OFFSET 2.4406171707858904 0 0
              CHANNELS 3 Yrotation Xrotation Zrotation
              JOINT leftHand
              {
                OFFSET 2.3832177068873874 0 0
                CHANNELS 3 Yrotation Xrotation Zrotation
                JOINT leftIndexProximal
                {
                  OFFSET 0.7310175006235151 0.08192774217833776 0.20404791572985242
                  CHANNELS 3 Yrotation Xrotation Zrotation
                  JOINT leftIndexIntermediate
                  {
                    OFFSET 0.3688845439429529 -0.010662034455094949 -0.014226011560394963
                    CHANNELS 3 Yrotation Xrotation Zrotation
                    JOINT leftIndexDistal
                    {
                      OFFSET 0.2271119941018298 -0.007897656478952575 -0.007580683836364496
                      CHANNELS 3 Yrotation Xrotation Zrotation
                      End Site
                      {
                        OFFSET 0.2271119941018298 -0.007897656478952575 -0.007580683836364496
                      }
                    }
                  }
                }
                JOINT leftLittleProximal
                {
                  OFFSET 0.678269929308182 0.08192620621401336 -0.323876516389586
                  CHANNELS 3 Yrotation Xrotation Zrotation
                  JOINT leftLittleIntermediate
                  {
                    OFFSET 0.34904545821382604 -0.0000017106393073174075 8.629360392919949e-9
                    CHANNELS 3 Yrotation Xrotation Zrotation
                    JOINT leftLittleDistal
                    {
                      OFFSET 0.2011060672849896 0.0031247840072243793 0.0038660318003989197
                      CHANNELS 3 Yrotation Xrotation Zrotation
                      End Site
                      {
                        OFFSET 0.2011060672849896 0.0031247840072243793 0.0038660318003989197
                      }
                    }
                  }
                }
                JOINT leftMiddleProximal
                {
                  OFFSET 0.7368181082522638 0.0819260272939426 0.02272335773438093
                  CHANNELS 3 Yrotation Xrotation Zrotation
                  JOINT leftMiddleIntermediate
                  {
                    OFFSET 0.41136739116025356 -0.0000015892429323649537 5.27860346960507e-8
                    CHANNELS 3 Yrotation Xrotation Zrotation
                    JOINT leftMiddleDistal
                    {
                      OFFSET 0.25378150303820757 -0.0000015332469289752737 1.3442958385345705e-8
                      CHANNELS 3 Yrotation Xrotation Zrotation
                      End Site
                      {
                        OFFSET 0.25378150303820757 -0.0000015332469289752737 1.3442958385345705e-8
                      }
                    }
                  }
                }
                JOINT leftRingProximal
                {
                  OFFSET 0.7284256823094712 0.08192611199801392 -0.1508405069143483
                  CHANNELS 3 Yrotation Xrotation Zrotation
                  JOINT leftRingIntermediate
                  {
                    OFFSET 0.381593741461262 -0.0000016975471202052006 6.592486757883709e-8
                    CHANNELS 3 Yrotation Xrotation Zrotation
                    JOINT leftRingDistal
                    {
                      OFFSET 0.22014536669820362 -0.0027420652959939673 -0.005037497035641991
                      CHANNELS 3 Yrotation Xrotation Zrotation
                      End Site
                      {
                        OFFSET 0.22014536669820362 -0.0027420652959939673 -0.005037497035641991
                      }
                    }
                  }
                }
                JOINT leftThumbProximal
                {
                  OFFSET 0.10842212958334652 -0.16573713992498873 -0.07779936144556289
                  CHANNELS 3 Yrotation Xrotation Zrotation
                  JOINT leftThumbIntermediate
                  {
                    OFFSET 0.40720553822379024 -0.01751267955631075 0.31852684427382305
                    CHANNELS 3 Yrotation Xrotation Zrotation
                    JOINT leftThumbDistal
                    {
                      OFFSET 0.23412859218032667 -0.01859690713588802 0.2146635043319005
                      CHANNELS 3 Yrotation Xrotation Zrotation
                      End Site
                      {
                        OFFSET 0.23412859218032667 -0.01859690713588802 0.2146635043319005
                      }
                    }
                  }
                }
              }
            }
          }
        }
        JOINT rightShoulder
        {
          OFFSET -1.1700037144859516 -0.41760703856471126 0
          CHANNELS 3 Yrotation Xrotation Zrotation
          JOINT rightUpperArm
          {
            OFFSET -1.1803910289368023 0 0
            CHANNELS 3 Yrotation Xrotation Zrotation
            JOINT rightLowerArm
            {
              OFFSET -2.440617418222133 0 0
              CHANNELS 3 Yrotation Xrotation Zrotation
              JOINT rightHand
              {
                OFFSET -2.3832181162662343 0 0
                CHANNELS 3 Yrotation Xrotation Zrotation
                JOINT rightIndexProximal
                {
                  OFFSET -0.7310168852843362 0.08192787643494381 0.20404785424302163
                  CHANNELS 3 Yrotation Xrotation Zrotation
                  JOINT rightIndexIntermediate
                  {
                    OFFSET -0.3688846010723953 -0.01066191355993129 -0.014226020535245201
                    CHANNELS 3 Yrotation Xrotation Zrotation
                    JOINT rightIndexDistal
                    {
                      OFFSET -0.22711216276130997 -0.007898902439410271 -0.007580718044857868
                      CHANNELS 3 Yrotation Xrotation Zrotation
                      End Site
                      {
                        OFFSET -0.22711216276130997 -0.007898902439410271 -0.007580718044857868
                      }
                    }
                  }
                }
                JOINT rightLittleProximal
                {
                  OFFSET -0.6782685897119165 0.08192501740206293 -0.3238766118101876
                  CHANNELS 3 Yrotation Xrotation Zrotation
                  JOINT rightLittleIntermediate
                  {
                    OFFSET -0.34904682243945895 -2.664019085329983e-7 3.792712677253007e-8
                    CHANNELS 3 Yrotation Xrotation Zrotation
                    JOINT rightLittleDistal
                    {
                      OFFSET -0.20110609302945537 0.0031260842677420797 0.0038661724369087186
                      CHANNELS 3 Yrotation Xrotation Zrotation
                      End Site
                      {
                        OFFSET -0.20110609302945537 0.0031260842677420797 0.0038661724369087186
                      }
                    }
                  }
                }
                JOINT rightMiddleProximal
                {
                  OFFSET -0.7368168209984411 0.08192485183145659 0.022723294831187846
                  CHANNELS 3 Yrotation Xrotation Zrotation
                  JOINT rightMiddleIntermediate
                  {
                    OFFSET -0.4113687575187084 -9.03141548214137e-8 4.759541079313312e-8
                    CHANNELS 3 Yrotation Xrotation Zrotation
                    JOINT rightMiddleDistal
                    {
                      OFFSET -0.2537822083525749 -9.554208624251714e-8 -1.6364827826187422e-9
                      CHANNELS 3 Yrotation Xrotation Zrotation
                      End Site
                      {
                        OFFSET -0.2537822083525749 -9.554208624251714e-8 -1.6364827826187422e-9
                      }
                    }
                  }
                }
                JOINT rightRingProximal
                {
                  OFFSET -0.7284243957721679 0.08192492753028224 -0.15084062217729294
                  CHANNELS 3 Yrotation Xrotation Zrotation
                  JOINT rightRingIntermediate
                  {
                    OFFSET -0.381595106800805 -2.5662436442530634e-7 2.929475539925619e-8
                    CHANNELS 3 Yrotation Xrotation Zrotation
                    JOINT rightRingDistal
                    {
                      OFFSET -0.22014544912608125 -0.002738002524970362 -0.0050375115645966
                      CHANNELS 3 Yrotation Xrotation Zrotation
                      End Site
                      {
                        OFFSET -0.22014544912608125 -0.002738002524970362 -0.0050375115645966
                      }
                    }
                  }
                }
                JOINT rightThumbProximal
                {
                  OFFSET -0.10842026863657162 -0.16573778435706465 -0.07779917642461898
                  CHANNELS 3 Yrotation Xrotation Zrotation
                  JOINT rightThumbIntermediate
                  {
                    OFFSET -0.40720600760521597 -0.017512298079938038 0.3185267362029824
                    CHANNELS 3 Yrotation Xrotation Zrotation
                    JOINT rightThumbDistal
                    {
                      OFFSET -0.2341289751103648 -0.018594162598156494 0.21466399510514025
                      CHANNELS 3 Yrotation Xrotation Zrotation
                      End Site
                      {
                        OFFSET -0.2341289751103648 -0.018594162598156494 0.21466399510514025
                      }
                    }
                  }
                }
              }
            }
          }
        }
      }
    }
  }
  JOINT leftUpperLeg
  {
    OFFSET -0.8565189721517369 0.4427277044191169 0
    CHANNELS 3 Yrotation Xrotation Zrotation
    JOINT leftLowerLeg
    {
      OFFSET 0 -3.918486704769693 0
      CHANNELS 3 Yrotation Xrotation Zrotation
      JOINT leftFoot
      {
        OFFSET 6.174701361744139e-7 -0.055233446196002234 4.612027801972084
        CHANNELS 3 Yrotation Xrotation Zrotation
        JOINT leftToes
        {
          OFFSET -3.4372540951010944e-7 -0.705284859504459 1.2256624571888697
          CHANNELS 3 Yrotation Xrotation Zrotation
          End Site
          {
            OFFSET -3.4372540951010944e-7 -0.705284859504459 1.2256624571888697
          }
        }
      }
    }
  }
  JOINT rightUpperLeg
  {
    OFFSET 0.8565189732197466 0.44272769569168136 0
    CHANNELS 3 Yrotation Xrotation Zrotation
    JOINT rightLowerLeg
    {
      OFFSET 0 -3.918486692649319 0
      CHANNELS 3 Yrotation Xrotation Zrotation
      JOINT rightFoot
      {
        OFFSET 6.995136552362391e-7 -0.05523244834012664 4.612028499942008
        CHANNELS 3 Yrotation Xrotation Zrotation
        JOINT rightToes
        {
          OFFSET -4.2566694985479714e-7 -0.7052846587611067 1.22566236096697
          CHANNELS 3 Yrotation Xrotation Zrotation
          End Site
          {
            OFFSET -4.2566694985479714e-7 -0.7052846587611067 1.22566236096697
          }
        }
      }
    }
  }
}
MOTION
Frames: 4
Frame Time: 0.03333333333333333
0.3066658079624176 -0.4206893457174239 -3.0828492641448975 -3.0324372251545064 -7.583675239980932 0.6724266325301289 0.3686608602032206 0.5837639566094553 1.5268635473885377 1.624867292523437 2.3077615206566766 5.895283905097323 0 0 0 -2.0568471789281992 -10.43268947743427 10.396714889361789 5.947747790702158 -26.611691907701044 -12.736136351975821 0 0 0 0 0 0 -13.1540015159574 2.8814533666235627 14.755345078494074 -157.71587531156266 -56.01823775143175 127.93843633516202 -90.53513787061243 0.7470821276731883 0.7401443742678181 -0.2201987926844631 17.977018801061334 0.557457216188345 5.981882033555571 4.641029351078477 -75.5934697895122 6.088642776038374 7.211824304298483 -99.67705213805534 4.717444662004828 2.193157090790566 -49.84956720591975 7.018632658116962 8.568852858632013 -75.01614945422311 1.9701655282412096 7.244000884178329 -100.13728779793787 4.717441681736933 2.1931470515964864 -49.84958908181905 5.981453694282511 4.639364157217991 -75.5775150453566 6.088359563833437 7.213532562530713 -99.69309458988545 4.717445939262491 2.1931532459928254 -49.84957683774158 5.981882033555571 4.641029351078477 -75.5934697895122 6.088642776038374 7.211824304298483 -99.67705213805534 4.717445087757382 2.1931573043904407 -49.84956720591975 22.679921274944252 -19.397099667795157 4.556570541558254 26.595773910127576 29.742575856504754 5.836779869874279 10.751503524883491 11.830918179081644 1.9459938283615854 23.253082703127433 4.501513897092383 -7.3565549093117095 79.29267010196799 -68.42004779590435 -50.023906645336716 91.41867207382329 0.758450571343295 -0.7398663391598292 18.73092915672476 -26.09289080248265 -27.153349375671826 -6.236524631674909 5.92287310278266 87.03912200831667 -6.198842135855415 5.4903549286202695 83.05101856341332 -4.138329654795386 1.5709615768724439 41.560598511624754 -6.236530177968828 5.922876107027986 87.03912200831667 -6.198853164985059 5.490355786328809 83.05101856341332 -4.138336895671628 1.570972893626828 41.560598511624754 -6.236524631674909 5.92287310278266 87.03912200831667 -6.198842135855415 5.4903549286202695 83.05101856341332 -4.138329228861484 1.5709615768724439 41.560598511624754 -6.236525058312907 5.92287310278266 87.03912200831667 -6.198841709508603 5.490354499766 83.05101856341332 -4.138329654795386 1.5709615768724439 41.560598511624754 -8.736926964047134 -13.061344043070108 3.677825022062578 -52.740464199190484 37.895120482776825 -25.41796159344126 -19.291966549945272 18.61091032515765 -5.335190934581781 7.641374811403411 -4.996338853995691 2.270650525126913 10.531198189041515 29.127518280929657 5.5922581776638305 1.8009861917457504 -16.269025526516984 -5.625278902387364 2.1976987196312563e-8 -0.0026540598091788653 0.0000017074050072089573 -9.53093082811033 -7.115162402776513 -9.589178396347409 -0.8354767979242761 28.06440006854927 -0.45117765322375597 -1.1118374975031673 -13.19524220142126 8.068502419653234 -7.15650756655492e-7 -0.00005558161407952648 0.0000025707791450443287
0.31269973516464233 -0.4588220132589278 -3.09368896484375 -4.082924043469195 -8.20762391272185 0.49237807225152835 0.32406076735373096 1.056235347791408 1.0678709784684672 1.2893097218023126 4.238193154433072 5.339991604167872 0 0 0 -1.9599685813929524 -10.641250517751342 9.955140831694525 5.331021784241199 -25.59517779188083 -10.859442925040266 0 0 0 0 0 0 -10.70966341603827 2.477319212699016 15.550674841500067 -163.54623235663317 -51.17684057482227 130.02513638381006 -87.27232582243325 0.7049442673971016 0.7393092147227255 -3.21726858865694 8.476800987961017 8.302875229918662 5.981882033555571 4.641029351078477 -75.5934697895122 6.088642776038374 7.211824304298483 -99.67705213805534 4.717444662004828 2.193157090790566 -49.84956720591975 7.018632658116962 8.568852858632013 -75.01614945422311 1.9701655282412096 7.244000884178329 -100.13728779793787 4.717441681736933 2.1931470515964864 -49.84958908181905 5.981453694282511 4.639364157217991 -75.5775150453566 6.088359563833437 7.213532562530713 -99.69309458988545 4.717445939262491 2.1931532459928254 -49.84957683774158 5.981882033555571 4.641029351078477 -75.5934697895122 6.088642776038374 7.211824304298483 -99.67705213805534 4.717445087757382 2.1931573043904407 -49.84956720591975 22.679921274944252 -19.397099667795157 4.556570541558254 26.595773910127576 29.742575856504754 5.836779869874279 10.751503524883491 11.830918179081644 1.9459938283615854 22.765603230259416 4.449542460338288 -10.43013096851282 85.4412835705533 -69.28707136154023 -53.95012764954493 81.41138143124931 0.6295777253361808 -0.7318006943818448 19.260403699822422 -31.364368932484304 -26.387345651646726 -6.236524631674909 5.92287310278266 87.03912200831667 -6.198842135855415 5.4903549286202695 83.05101856341332 -4.138329654795386 1.5709615768724439 41.560598511624754 -6.236530177968828 5.922876107027986 87.03912200831667 -6.198853164985059 5.490355786328809 83.05101856341332 -4.138336895671628 1.570972893626828 41.560598511624754 -6.236524631674909 5.92287310278266 87.03912200831667 -6.198842135855415 5.4903549286202695 83.05101856341332 -4.138329228861484 1.5709615768724439 41.560598511624754 -6.236525058312907 5.92287310278266 87.03912200831667 -6.198841709508603 5.490354499766 83.05101856341332 -4.138329654795386 1.5709615768724439 41.560598511624754 -8.736926964047134 -13.061344043070108 3.677825022062578 -52.740464199190484 37.895120482776825 -25.41796159344126 -19.291966549945272 18.61091032515765 -5.335190934581781 8.659323341109255 -5.231778416700171 2.669287891054394 10.796018369950092 30.900025827427548 6.0103085983919735 1.9493939375618472 -17.233243701472947 -5.840949817485535 2.1976987196312563e-8 -0.0026540598091788653 0.0000017074050072089573 -9.062551158997435 -7.5061094218652125 -9.529589911282105 0.041820929415632896 29.735425465583987 -0.005286818060549083 -1.1015996759654694 -13.90444251763966 7.904524274625642 -7.15650756655492e-7 -0.00005558161407952648 0.0000025707791450443287
0.3042823374271393 -0.4548728479146895 -2.990119218826294 -4.817028753110853 -11.08622180596663 -0.7222833186933645 0.16602214533476592 1.3073977861697363 0.20844089138547534 0.20099820318150727 5.293807439875055 3.351192683137675 0 0 0 -1.3711235282065 -0.27632838028669365 8.837921397621923 2.7590185468010198 -20.66166147964335 -5.384723771577838 0 0 0 0 0 0 -11.239033990645433 2.5918723991617343 19.24160475289453 -151.92912428929475 -57.66012649990478 103.8117596630696 -65.79744463687372 0.43672102813733993 0.6751027972393885 -18.347536691052078 -3.541190020818806 21.835053511130788 5.981882033555571 4.641029351078477 -75.5934697895122 6.088642776038374 7.211824304298483 -99.67705213805534 4.717444662004828 2.193157090790566 -49.84956720591975 7.018632658116962 8.568852858632013 -75.01614945422311 1.9701655282412096 7.244000884178329 -100.13728779793787 4.717441681736933 2.1931470515964864 -49.84958908181905 5.981453694282511 4.639364157217991 -75.5775150453566 6.088359563833437 7.213532562530713 -99.69309458988545 4.717445939262491 2.1931532459928254 -49.84957683774158 5.981882033555571 4.641029351078477 -75.5934697895122 6.088642776038374 7.211824304298483 -99.67705213805534 4.717445087757382 2.1931573043904407 -49.84956720591975 22.679921274944252 -19.397099667795157 4.556570541558254 26.595773910127576 29.742575856504754 5.836779869874279 10.751503524883491 11.830918179081644 1.9459938283615854 24.651698217231097 4.978513726369252 -12.394237659778886 68.25604772476696 -60.02924435658208 -32.70678351136784 56.587631539045525 0.33256433834432503 -0.6178084030818556 18.27048701074512 -38.977683744406114 -24.57524327687022 -6.236524631674909 5.92287310278266 87.03912200831667 -6.198842135855415 5.4903549286202695 83.05101856341332 -4.138329654795386 1.5709615768724439 41.560598511624754 -6.236530177968828 5.922876107027986 87.03912200831667 -6.198853164985059 5.490355786328809 83.05101856341332 -4.138336895671628 1.570972893626828 41.560598511624754 -6.236524631674909 5.92287310278266 87.03912200831667 -6.198842135855415 5.4903549286202695 83.05101856341332 -4.138329228861484 1.5709615768724439 41.560598511624754 -6.236525058312907 5.92287310278266 87.03912200831667 -6.198841709508603 5.490354499766 83.05101856341332 -4.138329654795386 1.5709615768724439 41.560598511624754 -8.736926964047134 -13.061344043070108 3.677825022062578 -52.740464199190484 37.895120482776825 -25.41796159344126 -19.291966549945272 18.61091032515765 -5.335190934581781 9.191798376447291 -1.653416143846786 4.633539880514289 10.594130140483864 31.07277849301974 5.95444491100245 2.6231317971889365 -18.22405940197634 -6.432068317225289 2.1976987196312563e-8 -0.0026540598091788653 0.0000017074050072089573 -8.878746683910455 -3.158951805004613 -8.726130603039673 0.23606563359971394 28.75645284553191 0.1033927137485578 -1.135082423603961 -14.260131317909941 7.9101473766028425 -7.15650756655492e-7 -0.00005558161407952648 0.0000025707791450443287
0.2925671637058258 -0.4272639764547286 -2.8705053329467773 -4.878682700022102 -14.104017971626842 -1.9255246158286359 0.0723551848330181 1.0402197159131428 -0.41282134259734954 -0.5763117029269266 4.219107167476132 1.4474062957665306 0 0 0 -0.8445621324889466 9.77667157590832 7.914690977001447 1.2060355971723553 -14.043788015826687 -1.399302837519387 0 0 0 0 0 0 -14.010607979696346 3.4529985255648192 21.632789136614193 -114.08361744770575 -60.27338023997038 62.334186003921054 -46.254055011607925 0.22837582366362 0.5347037679624288 -30.312877685677293 -6.410030921069 27.566116636460702 5.981882033555571 4.641029351078477 -75.5934697895122 6.088642776038374 7.211824304298483 -99.67705213805534 4.717444662004828 2.193157090790566 -49.84956720591975 7.018632658116962 8.568852858632013 -75.01614945422311 1.9701655282412096 7.244000884178329 -100.13728779793787 4.717441681736933 2.1931470515964864 -49.84958908181905 5.981453694282511 4.639364157217991 -75.5775150453566 6.088359563833437 7.213532562530713 -99.69309458988545 4.717445939262491 2.1931532459928254 -49.84957683774158 5.981882033555571 4.641029351078477 -75.5934697895122 6.088642776038374 7.211824304298483 -99.67705213805534 4.717445087757382 2.1931573043904407 -49.84956720591975 22.679921274944252 -19.397099667795157 4.556570541558254 26.595773910127576 29.742575856504754 5.836779869874279 10.751503524883491 11.830918179081644 1.9459938283615854 26.867471972543797 5.477530608380163 -11.349378333866143 52.9999285235739 -45.915111754851644 -21.889120729127214 40.950284383416744 0.18112056333956303 -0.4850896377623475 17.969249977736773 -42.66622944215564 -23.653562371062414 -6.236524631674909 5.92287310278266 87.03912200831667 -6.198842135855415 5.4903549286202695 83.05101856341332 -4.138329654795386 1.5709615768724439 41.560598511624754 -6.236530177968828 5.922876107027986 87.03912200831667 -6.198853164985059 5.490355786328809 83.05101856341332 -4.138336895671628 1.570972893626828 41.560598511624754 -6.236524631674909 5.92287310278266 87.03912200831667 -6.198842135855415 5.4903549286202695 83.05101856341332 -4.138329228861484 1.5709615768724439 41.560598511624754 -6.236525058312907 5.92287310278266 87.03912200831667 -6.198841709508603 5.490354499766 83.05101856341332 -4.138329654795386 1.5709615768724439 41.560598511624754 -8.736926964047134 -13.061344043070108 3.677825022062578 -52.740464199190484 37.895120482776825 -25.41796159344126 -19.291966549945272 18.61091032515765 -5.335190934581781 9.252033168715826 2.821149672752645 6.572863375871308 10.128335342592178 29.941126544741348 5.550654258756843 2.824538830174237 -18.674248791776773 -6.8043617813301385 2.1976987196312563e-8 -0.0026540598091788653 0.0000017074050072089573 -8.718351520486532 2.2619209728349374 -7.936515375226126 -0.30162347125340555 26.365376417340915 -0.15830958726762304 -1.1545168947940219 -14.075773191095367 8.07994738722749 -7.15650756655492e-7 -0.00005558161407952648 0.0000025707791450443287
